<?xml version="1.0" standalone="no"?>
<!DOCTYPE svg PUBLIC "-//W3C//DTD SVG 20010904//EN"
 "http://www.w3.org/TR/2001/REC-SVG-20010904/DTD/svg10.dtd">
<svg version="1.0" xmlns="http://www.w3.org/2000/svg"
 width="512.000000pt" height="512.000000pt" viewBox="0 0 512.000000 512.000000"
 preserveAspectRatio="xMidYMid meet">

<g transform="translate(0.000000,512.000000) scale(0.100000,-0.100000)"
fill="#000000" stroke="none">
<path d="M2185 4935 l-25 -24 0 -239 0 -238 -76 -18 c-41 -10 -77 -16 -78 -15
-2 2 -51 87 -110 189 -109 189 -141 230 -179 230 -29 0 -585 -322 -614 -355
-13 -15 -23 -34 -23 -43 0 -10 52 -107 115 -217 63 -110 115 -203 115 -206 0
-8 -101 -109 -109 -109 -3 0 -96 52 -206 115 -110 63 -207 115 -216 115 -36 0
-74 -51 -213 -293 -154 -268 -165 -298 -126 -337 25 -25 83 -27 108 -2 10 10
71 111 137 225 66 114 124 207 129 207 5 0 96 -50 202 -111 150 -86 199 -110
217 -105 32 8 255 231 263 263 5 19 -19 67 -105 217 -61 107 -111 198 -111
202 0 8 376 230 400 236 5 2 61 -85 124 -192 86 -148 119 -197 139 -204 19 -7
46 -3 104 14 43 13 114 31 158 41 119 27 115 16 115 290 l0 229 240 0 240 0 0
-230 c0 -227 0 -231 23 -254 13 -13 41 -26 67 -30 25 -3 94 -21 153 -38 82
-23 115 -29 135 -22 19 7 53 57 139 204 62 107 118 194 124 192 26 -6 399
-227 399 -236 0 -5 -50 -96 -111 -202 -85 -147 -110 -199 -105 -217 7 -30 233
-256 263 -263 18 -5 71 21 218 105 107 61 199 111 203 111 4 0 52 -78 107
-172 55 -95 107 -187 117 -204 l19 -32 -195 -113 c-214 -124 -230 -140 -206
-199 14 -34 37 -50 71 -50 30 0 457 245 492 282 21 22 28 38 25 57 -6 38 -325
587 -355 611 -14 11 -33 20 -42 20 -9 0 -107 -52 -219 -117 l-203 -116 -56 55
-56 56 116 204 c65 112 117 211 117 220 0 10 -12 31 -27 47 -35 37 -580 351
-610 351 -38 0 -70 -40 -179 -230 -59 -102 -108 -187 -110 -189 -1 -1 -37 5
-78 15 l-76 18 0 238 0 239 -25 24 -24 25 -351 0 -351 0 -24 -25z"/>
<path d="M2370 3905 c-276 -44 -505 -160 -707 -359 -92 -91 -103 -105 -103
-137 0 -45 34 -79 77 -79 26 0 47 16 125 93 131 130 270 218 433 274 522 179
1093 -46 1352 -533 25 -47 44 -87 42 -89 -2 -1 -32 14 -65 34 -186 113 -415
120 -614 19 l-85 -43 -65 17 c-166 43 -326 1 -451 -119 -188 -179 -198 -476
-22 -664 25 -27 60 -58 78 -69 31 -19 32 -21 38 -112 8 -137 54 -251 136 -343
l36 -40 -25 -3 c-14 -2 -46 -10 -72 -18 l-46 -15 -53 50 c-59 56 -168 115
-247 134 -28 6 -51 14 -49 17 2 3 18 37 37 75 l35 70 0 256 0 255 -37 76 c-45
91 -104 148 -195 190 -55 26 -81 32 -163 36 l-98 5 -22 66 c-55 169 -189 323
-351 404 -125 63 -199 81 -329 81 -121 0 -199 -18 -308 -69 -145 -68 -267
-188 -336 -330 -58 -119 -68 -170 -73 -370 -5 -173 -4 -181 17 -207 30 -39 90
-39 119 -2 19 24 21 40 21 173 0 176 15 255 67 354 93 177 289 296 490 297
205 0 408 -122 497 -301 46 -92 46 -99 -4 -99 -30 0 -47 -7 -65 -25 -23 -22
-25 -32 -25 -106 0 -79 -1 -81 -17 -60 -11 12 -46 29 -85 40 -113 31 -178 96
-209 209 -27 97 -41 106 -159 100 -72 -4 -107 -11 -145 -29 -63 -30 -123 -90
-155 -154 -22 -45 -25 -62 -25 -180 0 -139 -4 -126 73 -277 2 -5 -5 -8 -15 -8
-37 0 -143 -42 -203 -81 -110 -71 -178 -156 -229 -288 l-26 -66 -3 -472 -3
-473 25 -25 c33 -33 79 -33 111 0 l25 24 0 256 0 255 80 0 80 0 0 -255 0 -256
25 -24 c24 -25 24 -25 240 -25 l215 0 0 -135 c0 -131 1 -137 25 -160 l24 -25
431 0 431 0 24 25 c39 38 31 96 -17 121 -15 8 -8 24 54 124 l72 114 -37 225
c-22 134 -45 240 -56 261 l-18 35 53 57 c51 53 54 59 54 109 l0 52 53 -7 c61
-8 158 -51 205 -91 l33 -27 -54 -57 c-61 -64 -97 -122 -129 -207 -22 -58 -23
-68 -26 -611 l-3 -553 25 -25 25 -25 671 0 671 0 24 25 25 24 0 351 0 351 -25
24 c-32 33 -78 33 -110 0 l-25 -24 0 -296 0 -295 -192 0 -193 0 37 25 c53 36
135 141 160 205 16 42 22 85 26 177 6 170 -14 295 -74 446 -5 15 6 12 64 -17
126 -63 149 -50 192 109 17 61 30 118 30 128 0 30 -45 67 -81 67 -44 0 -67
-23 -85 -87 -8 -29 -17 -53 -20 -53 -5 0 -127 60 -133 66 -2 1 37 51 85 110
l89 106 60 -6 c131 -14 258 -106 318 -234 l32 -67 5 -548 5 -549 24 -19 c33
-27 77 -24 107 6 l25 25 -3 553 c-3 543 -4 553 -26 611 -32 85 -68 143 -129
207 l-54 57 40 31 c54 43 136 79 199 87 l52 7 0 -52 c0 -50 2 -52 88 -147 89
-99 125 -124 167 -116 13 2 69 50 124 107 l101 102 0 53 0 53 53 -7 c74 -9
186 -66 236 -122 24 -25 57 -75 74 -112 29 -62 32 -77 35 -195 l4 -127 -81 0
-81 0 0 95 c0 88 -2 98 -25 120 -32 33 -78 33 -110 0 l-25 -24 0 -296 0 -295
-215 0 c-216 0 -216 0 -240 -25 -33 -32 -33 -78 0 -110 l24 -25 271 0 271 0
24 25 c25 24 25 27 25 200 l0 175 80 0 80 0 0 -175 c0 -173 0 -176 25 -200 32
-33 78 -33 111 0 l25 25 -3 393 -3 392 -26 66 c-37 97 -71 149 -139 217 -66
65 -171 124 -258 145 -28 6 -51 14 -49 17 2 3 18 37 37 75 l35 70 3 180 c5
218 3 223 -97 236 -87 12 -139 38 -210 103 -81 75 -101 75 -182 0 -66 -61
-123 -91 -191 -100 l-43 -6 3 68 c2 38 -3 101 -11 139 -9 41 -11 74 -6 81 14
17 104 63 166 85 249 85 542 -33 667 -269 54 -103 66 -175 66 -393 0 -173 1
-188 21 -213 29 -37 89 -37 119 2 21 26 22 33 18 252 -4 207 -7 231 -30 302
-39 119 -92 204 -182 294 -129 129 -278 198 -454 210 -129 10 -247 -15 -398
-82 -7 -3 -22 28 -37 78 -33 106 -92 226 -158 325 -66 99 -242 275 -339 340
-270 181 -601 256 -910 208z m951 -883 c233 -61 389 -299 350 -534 -14 -88
-57 -180 -110 -239 l-40 -44 -1 158 0 159 -30 29 c-28 28 -33 30 -77 22 -27
-4 -93 -8 -148 -8 -172 1 -318 61 -411 170 -49 58 -71 70 -109 61 -14 -4 -90
-80 -184 -185 -178 -199 -164 -193 -212 -101 -34 66 -34 195 1 265 72 147 239
219 385 165 99 -36 121 -37 168 -3 131 94 273 123 418 85z m-2412 -179 c36
-100 128 -197 230 -243 46 -21 49 -24 40 -49 -16 -47 -71 -103 -123 -127 -95
-44 -184 -27 -261 51 -59 59 -75 102 -75 203 0 104 27 158 95 188 55 24 79 18
94 -23z m925 -135 c45 -13 146 -105 146 -132 0 -14 -28 -16 -230 -16 l-230 0
0 80 0 80 136 0 c78 0 154 -5 178 -12z m-474 -218 l0 -111 -37 7 c-21 4 -40 8
-42 10 -2 2 10 30 27 62 17 32 34 77 38 100 4 23 8 42 10 42 2 0 4 -50 4 -110z
m1452 66 c105 -91 261 -146 431 -153 l119 -6 -4 -166 -3 -167 -37 -76 c-45
-91 -103 -147 -196 -191 -61 -29 -76 -32 -162 -32 -86 0 -101 3 -162 32 -93
44 -151 100 -196 191 l-37 76 -4 152 -3 153 98 110 c55 60 103 110 107 110 5
1 27 -14 49 -33z m1410 -157 c35 -22 89 -48 120 -57 l58 -17 0 -99 c0 -130
-13 -169 -75 -231 -101 -102 -229 -102 -330 0 -62 62 -75 101 -75 231 l0 99
59 17 c32 10 85 35 117 57 32 22 60 41 61 41 1 0 31 -18 65 -41z m-2222 -135
c0 -170 -9 -204 -75 -269 -101 -102 -229 -102 -330 0 -66 65 -75 99 -75 269
l0 136 240 0 240 0 0 -136z m-960 -52 c0 -20 -17 -63 -42 -109 l-41 -76 -38
74 c-22 42 -38 89 -39 109 l0 35 80 0 80 0 0 -33z m2761 -219 c18 -37 34 -70
36 -73 2 -3 -21 -11 -49 -18 -81 -19 -187 -76 -246 -132 l-54 -51 -46 15 c-26
8 -57 16 -69 18 -22 3 -21 6 18 53 22 28 56 82 75 121 28 60 41 76 80 99 58
34 162 138 189 189 l20 37 6 -95 c6 -80 12 -106 40 -163z m-3081 198 c0 -42
14 -76 90 -230 77 -157 93 -181 117 -188 34 -9 63 -5 81 10 8 6 54 91 103 189
74 147 89 186 89 224 l0 47 49 -7 c27 -4 63 -11 79 -17 28 -10 29 -13 35 -85
5 -70 14 -96 75 -216 2 -5 -5 -8 -15 -8 -37 0 -143 -42 -203 -81 -111 -71
-179 -158 -228 -288 -23 -59 -26 -85 -30 -243 l-4 -178 -159 0 -159 0 0 375 0
376 -25 24 c-15 16 -36 25 -55 25 -19 0 -40 -9 -55 -25 -23 -22 -25 -32 -25
-120 l0 -95 -81 0 -81 0 4 128 c3 117 6 132 35 194 17 37 50 87 72 111 63 68
178 123 264 126 26 1 27 -1 27 -48z m1120 -451 c0 -17 -14 -40 -40 -65 l-40
-39 -40 39 c-26 25 -40 48 -40 65 0 25 1 25 80 25 79 0 80 0 80 -25z m2400 0
c0 -17 -14 -40 -40 -65 l-40 -39 -40 39 c-26 25 -40 48 -40 65 0 25 1 25 80
25 79 0 80 0 80 -25z m-2720 -30 c0 -46 4 -54 51 -106 32 -36 49 -62 46 -73
-3 -9 -12 -34 -20 -56 -8 -22 -29 -133 -48 -247 l-33 -206 26 -39 c14 -21 49
-71 77 -110 l52 -73 -116 0 -115 0 0 295 0 296 -25 24 c-15 16 -36 25 -55 25
-19 0 -40 -9 -55 -25 l-25 -24 0 -296 0 -295 -81 0 -80 0 3 328 3 327 32 67
c17 37 50 87 72 111 63 68 178 123 264 126 26 1 27 -1 27 -49z m1506 -144
c-17 -21 -39 -48 -48 -60 l-18 -21 -17 21 c-10 12 -32 39 -49 60 l-32 39 98 0
98 0 -32 -39z m-281 -72 c48 -58 86 -107 84 -108 -12 -11 -132 -67 -135 -63
-5 5 -74 254 -74 267 0 6 8 10 19 10 11 0 52 -41 106 -106z m-228 -145 c68
-252 79 -262 213 -194 38 19 71 35 74 35 2 0 -9 -33 -24 -72 -45 -117 -63
-232 -58 -389 3 -133 4 -137 40 -210 26 -53 56 -93 102 -137 l64 -62 -184 0
-184 0 0 295 0 296 -25 24 c-15 16 -36 25 -55 25 -19 0 -40 -9 -55 -25 l-25
-24 0 -296 0 -295 -80 0 -81 0 3 487 3 488 27 58 c15 32 37 72 49 88 27 38
118 111 133 106 6 -2 34 -91 63 -198z m-743 74 c2 -10 17 -96 33 -191 30 -188
30 -187 -26 -261 l-18 -23 -36 51 c-20 28 -37 61 -37 72 0 20 44 299 55 347 6
26 22 29 29 5z m1239 -417 c19 -60 22 -94 22 -226 0 -151 -1 -156 -28 -202
-37 -64 -46 -67 -78 -29 -43 52 -52 104 -46 254 5 130 18 196 63 303 l16 38
14 -34 c8 -18 24 -65 37 -104z"/>
<path d="M2745 2295 c-50 -49 -15 -135 55 -135 41 0 80 39 80 80 0 41 -39 80
-80 80 -19 0 -40 -9 -55 -25z"/>
<path d="M3065 2295 c-50 -49 -15 -135 55 -135 41 0 80 39 80 80 0 41 -39 80
-80 80 -19 0 -40 -9 -55 -25z"/>
<path d="M4105 1335 c-50 -49 -15 -135 55 -135 41 0 80 39 80 80 0 41 -39 80
-80 80 -19 0 -40 -9 -55 -25z"/>
<path d="M4105 1015 c-50 -49 -15 -135 55 -135 41 0 80 39 80 80 0 41 -39 80
-80 80 -19 0 -40 -9 -55 -25z"/>
</g>
</svg>
